<svg xmlns="http://www.w3.org/2000/svg" version="1.1" xmlns:xlink="http://www.w3.org/1999/xlink" xmlns:svgjs="http://svgjs.dev/svgjs" width="1000" height="623" viewBox="0 0 1000 623"><g transform="matrix(1,0,0,1,-0.6060606060606233,0.2522267206477409)"><svg viewBox="0 0 396 247" data-background-color="#000000" preserveAspectRatio="xMidYMid meet" height="623" width="1000" xmlns="http://www.w3.org/2000/svg" xmlns:xlink="http://www.w3.org/1999/xlink"><g id="tight-bounds" transform="matrix(1,0,0,1,0.2400000000000091,-0.09999999999999432)"><svg viewBox="0 0 395.52 247.2" height="247.2" width="395.52"><g><svg></svg></g><g><svg viewBox="0 0 395.52 247.2" height="247.2" width="395.52"><g transform="matrix(1,0,0,1,92.288,98.40783283866912)"><svg viewBox="0 0 210.944 50.384334322661736" height="50.384334322661736" width="210.944"><g><svg viewBox="0 0 210.944 50.384334322661736" height="50.384334322661736" width="210.944"><g><svg viewBox="0 0 210.944 50.384334322661736" height="50.384334322661736" width="210.944"><g><svg viewBox="0 0 210.944 50.384334322661736" height="50.384334322661736" width="210.944"><g id="textblocktransform"><svg viewBox="0 0 210.944 50.384334322661736" height="50.384334322661736" width="210.944" id="textblock"><g><svg viewBox="0 0 210.944 50.384334322661736" height="50.384334322661736" width="210.944"><g transform="matrix(1,0,0,1,0,0)"><svg width="210.944" viewBox="-3.95 -39.03 213.86999999999998 51.84" height="50.384334322661736" data-palette-color="#ffffff"><path d="M14.33 0.42L14.33 0.42Q11.96 0.42 10.38 0.05L10.38 0.05Q8.18-0.42 7.15-1.39L7.15-1.39Q4.86-6.25 3.22-12.04L3.22-12.04Q0.95-20.04 0.05-28.56L0.05-28.56Q1.15-30.18 3.05-31.07 4.96-31.96 7.3-31.96L7.3-31.96Q10.82-31.96 12.83-30.62 14.84-29.27 14.84-26.78L14.84-26.78Q14.67-24.93 14.54-21.34 14.4-17.75 14.4-14.84L14.4-14.84Q14.4-14.04 14.56-13.59 14.72-13.13 15.23-13.13L15.23-13.13Q15.43-13.13 15.72-13.21L15.72-13.21Q15.7-13.43 15.7-13.94L15.7-13.94 15.7-14.79Q15.7-18.33 15.94-22.96 16.19-27.59 16.53-29.86L16.53-29.86Q18.75-31.23 21.75-31.23 24.76-31.23 26.59-30.4L26.59-30.4Q28.78-29.37 28.91-27.39L28.91-27.39Q28.78-25 28.45-22.68 28.13-20.36 27.66-17.33 27.2-14.31 27.08-13.33L27.08-13.33Q27.27-13.23 27.59-13.23 27.91-13.23 28.17-13.48 28.44-13.72 28.61-14.65L28.61-14.65Q29.37-18.55 29.86-22.89 30.35-27.22 30.49-30.44L30.49-30.44Q32.74-31.96 36.69-31.96L36.69-31.96Q39.89-31.96 41.8-30.26 43.7-28.56 43.7-25.71L43.7-25.71Q43.7-23.8 41.89-15.72L41.89-15.72Q40.97-11.47 40.11-8.46 39.26-5.44 38.72-4.22L38.72-4.22Q37.6-1.76 35.36-0.67 33.13 0.42 29.66 0.42L29.66 0.42Q28.27 0.42 26.45 0 24.63-0.42 23.68-0.93L23.68-0.93Q23.19-1.68 22.58-3.22 21.97-4.76 21.83-5.54L21.83-5.54Q20.87-5.52 20.87-4.52L20.87-4.52Q20.87-3.74 21.63-1.64L21.63-1.64Q19.07 0.42 14.33 0.42ZM56.27-13.6L56.27-13.6 56.27-9.33Q56.44-9.16 56.83-9.16 57.22-9.16 57.39-9.42 57.57-9.69 57.57-10.35L57.57-10.35 57.57-13.84Q57.57-16.19 57.37-16.96 57.18-17.72 56.64-17.72L56.64-17.72Q56.3-17.72 56.05-17.48L56.05-17.48Q56.27-15.06 56.27-13.6ZM47.14-2.78L47.14-2.78Q43.14-6.64 43.14-13.24 43.14-19.85 46.91-23.67 50.68-27.49 56.81-27.49 62.94-27.49 66.72-23.51L66.72-23.51Q70.48-19.53 70.48-13.15 70.48-6.76 66.86-3 63.23 0.76 57 0.76 50.78 0.76 47.14-2.78ZM84.3-29.47L84.3-29.47 84.3-12.3Q84.3-8.67 86.05-7.57L86.05-7.57Q86.08-7.45 86.08-7.1L86.08-7.1 86.08-6.67Q86.08-3.17 84.31-1.37 82.54 0.44 79.29 0.44 76.04 0.44 74.14-1.37L74.14-1.37Q71.87-3.52 71.87-7.86L71.87-7.86 71.87-33.23Q74.43-34.79 77.74-34.79 81.05-34.79 82.67-33.39 84.3-31.98 84.3-29.47ZM95.55 0.32L95.55 0.32Q92.64 0.32 90.91-0.73L90.91-0.73Q88.98-1.83 88.98-3.98L88.98-3.98 88.98-15.43 89.74-15.43Q90.96-15.43 90.96-16.24L90.96-16.24Q90.96-16.33 90.91-16.53L90.91-16.53 86.86-16.53Q85.44-18.55 85.44-21.53 85.44-24.51 86.86-26.68L86.86-26.68 88.98-26.68Q89.57-30.74 92.16-32.89 94.74-35.03 99.04-35.03L99.04-35.03Q102.12-35.03 104.39-34.16 106.66-33.28 107.71-32.15L107.71-32.15Q107.95-31.35 107.95-30.2L107.95-30.2 107.95-29.74Q107.95-27.22 107.22-25.32L107.22-25.32Q105.53-24.66 102.51-24.66L102.51-24.66Q101.26-24.66 99.78-24.83 98.31-25 97.6-25.17L97.6-25.17Q97.43-25 97.43-24.68L97.43-24.68Q97.43-24.27 98.6-23.91 99.77-23.56 102.4-23.56 105.02-23.56 106.71-23.85L106.71-23.85Q106.88-23.46 107.04-22.38 107.19-21.29 107.19-20.24L107.19-20.24Q107.19-17.99 106.36-16.53L106.36-16.53 101.85-16.53 101.85-1.37Q99.19 0.32 95.55 0.32ZM133.63-8.89L133.63-8.89Q134.44-9.03 134.44-9.7 134.44-10.38 134.01-11.22 133.58-12.06 132.75-12.82L132.75-12.82Q130.58-14.77 126.87-14.77L126.87-14.77Q125.04-14.77 123.45-14.16L123.45-14.16Q121.76-15.01 120.76-16.87 119.76-18.73 119.76-20.87L119.76-20.87Q119.76-26.49 124.45-29.54L124.45-29.54Q128.48-32.15 134.39-32.15L134.39-32.15Q138.78-32.15 141.78-31.21 144.79-30.27 146.69-28.81L146.69-28.81Q147.25-27.2 147.25-25.46 147.25-23.73 146.79-22.31 146.33-20.9 145.45-20.04L145.45-20.04Q144.62-20.65 142.44-21.29 140.27-21.92 138.49-21.92 136.71-21.92 136.11-21.7 135.51-21.48 135.51-21.02L135.51-21.02Q135.51-20.8 135.58-20.61L135.58-20.61Q136.44-20.83 137.78-20.83L137.78-20.83Q142.54-20.83 145.54-18.58L145.54-18.58Q149.08-15.89 149.08-10.52L149.08-10.52Q149.08-5.79 145.25-2.66L145.25-2.66Q141.1 0.68 134.09 0.68L134.09 0.68Q130.24 0.68 127.4 0.11 124.57-0.46 121.89-1.9L121.89-1.9Q120.06-4.57 120.06-7.31 120.06-10.06 121.94-11.87 123.82-13.67 126.56-13.67 129.31-13.67 131.05-12.55 132.8-11.43 133.63-8.89ZM162.41-9.18L162.41-9.18 161.24-8.67Q161.24-7.03 161.87-5.18L161.87-5.18Q162.41-3.42 163.36-2.05L163.36-2.05Q160.95 0.44 156.65 0.44L156.65 0.44Q154.18 0.44 152.38-0.85L152.38-0.85Q150.28-2.32 150.28-4.74L150.28-4.74 150.28-33.23Q151.45-33.91 153.1-34.35 154.75-34.79 156.43-34.79L156.43-34.79Q159.24-34.79 161.07-33.69L161.07-33.69Q163.14-32.4 163.14-29.98L163.14-29.98 163.14-27.39Q163.14-24.15 162-21.04L162-21.04Q161.78-20.73 161.22-20.13 160.65-19.53 160.32-19.04 159.99-18.55 159.99-18.2 159.99-17.85 160.58-17.55L160.58-17.55Q162.49-19.34 163.57-21.44 164.66-23.54 165.56-27L165.56-27Q165.88-27.05 166.29-27.12 166.71-27.2 167.67-27.36 168.64-27.51 169.03-27.51L169.03-27.51Q172.79-27.51 174.89-25.79 176.99-24.07 176.99-21.07 176.99-18.07 175.08-15.92L175.08-15.92Q173.32-13.99 170.52-13.01L170.52-13.01Q172.76-11.69 176.18-11.13L176.18-11.13Q177.5-8.74 177.5-6.04 177.5-3.34 175.79-1.54L175.79-1.54Q173.89 0.44 170.53 0.44 167.17 0.44 165.01-2.14 162.85-4.71 162.41-9.18ZM191.22-12.33L191.22-12.33 191.22-11.77Q191.22-11.38 191.24-11.21L191.24-11.21Q191.49-11.08 191.78-11.08L191.78-11.08Q192.49-11.08 192.49-12.16L192.49-12.16Q192.49-15.75 192.89-19.62 193.29-23.49 193.76-25.59L193.76-25.59Q195.73-27.03 199.03-27.03 202.33-27.03 204.12-25.74 205.92-24.46 205.92-22.66L205.92-22.66Q205.92-21.9 205.01-16.41L205.01-16.41Q204.01-10.82 202.45-4.64L202.45-4.64Q202.13-3.39 201.31-1.15 200.5 1.1 199.57 2.59L199.57 2.59Q196.66 7.2 192.39 8.3L192.39 8.3Q190.39 8.81 188.36 8.81L188.36 8.81Q184.43 8.81 182.28 6.86L182.28 6.86Q180.3 5.1 180.3 2.5 180.3-0.1 181.84-2.39L181.84-2.39Q182.21-2.49 183.19-2.49 184.16-2.49 185.63-2.25L185.63-2.25Q189.68-1.49 189.75-1.49L189.75-1.49Q189.92-1.46 190.13-1.43 190.34-1.39 190.68-1.39 191.02-1.39 191.27-1.59 191.51-1.78 191.51-2.37L191.51-2.37 185.75-3.47Q183.63-4.35 182.06-7.15L182.06-7.15Q180.13-10.62 179.45-16.55L179.45-16.55Q177.84-18.65 177.84-21.58 177.84-24.51 179.3-26.68L179.3-26.68 185.58-26.68Q188.73-26.68 190.29-24.88L190.29-24.88Q191.44-23.54 191.75-20.95L191.75-20.95Q191.22-16.7 191.22-12.33Z" opacity="1" transform="matrix(1,0,0,1,0,0)" fill="#ffffff" class="undefined-text-0" data-fill-palette-color="primary" id="text-0"></path></svg></g></svg></g></svg></g></svg></g></svg></g></svg></g></svg></g><g mask="url(&quot;#e16c878e-4275-4a9f-87c0-2f266acaf300&quot;)"><g transform="matrix(3.9352, 0, 0, 3.9352, 1, 48.992543199999986)"><svg xmlns="http://www.w3.org/2000/svg" xmlns:xlink="http://www.w3.org/1999/xlink" version="1.1" x="0" y="0" viewBox="0 31.042 100 37.918000000000006" enable-background="new 0 0 100 100" xml:space="preserve" height="37.918000000000006" width="100" class="icon-none" data-fill-palette-color="accent" id="none"><path d="M23.545 51.412c6.389-0.23 12.777-0.461 19.166-0.69-1.191-1.97-1.489-3.692-3.767-3.989-3.408-0.443-6.816-0.888-10.225-1.332-6.611-0.861-13.224-1.723-19.836-2.584C9.476 43.773 18.728 51.585 23.545 51.412z" fill="#ffffff" data-fill-palette-color="accent"></path><path d="M0 31.042c2.07 3.421 12.547 10.877 15.536 11.261 8.17 1.052 16.339 2.103 24.509 3.153-1.6-2.644-1.971-4.408-4.861-5.167-4.198-1.104-8.397-2.208-12.596-3.311C15.058 35 7.529 33.021 0 31.042z" fill="#ffffff" data-fill-palette-color="accent"></path><path d="M29.752 57.642c4.909-1.047 9.818-2.094 14.729-3.141-0.956-1.577-0.959-2.526-2.747-2.446-2.903 0.129-5.806 0.259-8.708 0.388-5.348 0.238-10.695 0.478-16.042 0.716C17.584 53.803 25.901 58.462 29.752 57.642z" fill="#ffffff" data-fill-palette-color="accent"></path><path d="M41.337 68.959c2.699-1.754 3.424-3.641 4.959-6.51 1.722-3.217 0.593-3.697-1.33-6.881-0.196-0.324-2.754 0.109-3.042 0.427-0.352 0.386-0.117 2.571-0.139 3.062C41.636 62.357 41.486 65.658 41.337 68.959z" fill="#ffffff" data-fill-palette-color="accent"></path><path d="M40.709 56.34c-1.789 0.382-4.057 0.091-4.513 1.994-0.647 2.704-1.295 5.409-1.942 8.113C38.613 65.406 40.558 60.175 40.709 56.34z" fill="#ffffff" data-fill-palette-color="accent"></path><path d="M35.201 57.601c-4.313 0.921-4.223 2.174-6.072 6.214C32.062 63.536 34.798 60.345 35.201 57.601z" fill="#ffffff" data-fill-palette-color="accent"></path><path d="M91.116 42.816c-6.612 0.861-13.225 1.723-19.837 2.584-3.408 0.444-6.816 0.889-10.225 1.332-2.276 0.297-2.575 2.02-3.766 3.989 6.389 0.229 12.777 0.46 19.166 0.69C81.271 51.585 90.523 43.773 91.116 42.816z" fill="#ffffff" data-fill-palette-color="accent"></path><path d="M77.413 36.978c-4.199 1.104-8.397 2.208-12.597 3.311-2.89 0.759-3.262 2.523-4.86 5.167 8.169-1.051 16.339-2.102 24.508-3.153 2.989-0.384 13.467-7.84 15.536-11.261C92.471 33.021 84.942 35 77.413 36.978z" fill="#ffffff" data-fill-palette-color="accent"></path><path d="M83.017 53.158c-5.347-0.238-10.694-0.478-16.042-0.716-2.903-0.129-5.806-0.259-8.709-0.388-1.788-0.08-1.79 0.869-2.746 2.446 4.909 1.047 9.818 2.094 14.729 3.141C74.098 58.462 82.415 53.803 83.017 53.158z" fill="#ffffff" data-fill-palette-color="accent"></path><path d="M58.215 59.058c-0.022-0.491 0.213-2.677-0.139-3.062-0.289-0.317-2.846-0.751-3.042-0.427-1.924 3.184-3.052 3.664-1.33 6.881 1.535 2.869 2.259 4.756 4.959 6.51C58.514 65.658 58.364 62.357 58.215 59.058z" fill="#ffffff" data-fill-palette-color="accent"></path><path d="M65.745 66.447c-0.647-2.704-1.295-5.409-1.942-8.113-0.455-1.903-2.724-1.612-4.512-1.994C59.441 60.175 61.387 65.406 65.745 66.447z" fill="#ffffff" data-fill-palette-color="accent"></path><path d="M70.871 63.814c-1.851-4.04-1.76-5.293-6.072-6.214C65.202 60.345 67.938 63.536 70.871 63.814z" fill="#ffffff" data-fill-palette-color="accent"></path></svg></g></g><mask id="e16c878e-4275-4a9f-87c0-2f266acaf300"><rect width="640" height="400" fill="white"></rect><g transform="matrix(1,0,0,1,92.288,98.40783283866912)"><svg viewBox="0 0 210.944 50.384334322661736" height="50.384334322661736" width="210.944"><g><svg viewBox="0 0 210.944 50.384334322661736" height="50.384334322661736" width="210.944"><g><svg viewBox="0 0 210.944 50.384334322661736" height="50.384334322661736" width="210.944"><g><svg viewBox="0 0 210.944 50.384334322661736" height="50.384334322661736" width="210.944"><g id="SvgjsG1154"><svg viewBox="0 0 210.944 50.384334322661736" height="50.384334322661736" width="210.944" id="SvgjsSvg1153"><g><svg viewBox="0 0 210.944 50.384334322661736" height="50.384334322661736" width="210.944"><g transform="matrix(1,0,0,1,0,0)"><svg width="210.944" viewBox="-3.95 -39.03 213.86999999999998 51.84" height="50.384334322661736" data-palette-color="#ffffff"><path d="M14.33 0.42L14.33 0.42Q11.96 0.42 10.38 0.05L10.38 0.05Q8.18-0.42 7.15-1.39L7.15-1.39Q4.86-6.25 3.22-12.04L3.22-12.04Q0.95-20.04 0.05-28.56L0.05-28.56Q1.15-30.18 3.05-31.07 4.96-31.96 7.3-31.96L7.3-31.96Q10.82-31.96 12.83-30.62 14.84-29.27 14.84-26.78L14.84-26.78Q14.67-24.93 14.54-21.34 14.4-17.75 14.4-14.84L14.4-14.84Q14.4-14.04 14.56-13.59 14.72-13.13 15.23-13.13L15.23-13.13Q15.43-13.13 15.72-13.21L15.72-13.21Q15.7-13.43 15.7-13.94L15.7-13.94 15.7-14.79Q15.7-18.33 15.94-22.96 16.19-27.59 16.53-29.86L16.53-29.86Q18.75-31.23 21.75-31.23 24.76-31.23 26.59-30.4L26.59-30.4Q28.78-29.37 28.91-27.39L28.91-27.39Q28.78-25 28.45-22.68 28.13-20.36 27.66-17.33 27.2-14.31 27.08-13.33L27.08-13.33Q27.27-13.23 27.59-13.23 27.91-13.23 28.17-13.48 28.44-13.72 28.61-14.65L28.61-14.65Q29.37-18.55 29.86-22.89 30.35-27.22 30.49-30.44L30.49-30.44Q32.74-31.96 36.69-31.96L36.69-31.96Q39.89-31.96 41.8-30.26 43.7-28.56 43.7-25.71L43.7-25.71Q43.7-23.8 41.89-15.72L41.89-15.72Q40.97-11.47 40.11-8.46 39.26-5.44 38.72-4.22L38.72-4.22Q37.6-1.76 35.36-0.67 33.13 0.42 29.66 0.42L29.66 0.42Q28.27 0.42 26.45 0 24.63-0.42 23.68-0.93L23.68-0.93Q23.19-1.68 22.58-3.22 21.97-4.76 21.83-5.54L21.83-5.54Q20.87-5.52 20.87-4.52L20.87-4.52Q20.87-3.74 21.63-1.64L21.63-1.64Q19.07 0.42 14.33 0.42ZM56.27-13.6L56.27-13.6 56.27-9.33Q56.44-9.16 56.83-9.16 57.22-9.16 57.39-9.42 57.57-9.69 57.57-10.35L57.57-10.35 57.57-13.84Q57.57-16.19 57.37-16.96 57.18-17.72 56.64-17.72L56.64-17.72Q56.3-17.72 56.05-17.48L56.05-17.48Q56.27-15.06 56.27-13.6ZM47.14-2.78L47.14-2.78Q43.14-6.64 43.14-13.24 43.14-19.85 46.91-23.67 50.68-27.49 56.81-27.49 62.94-27.49 66.72-23.51L66.72-23.51Q70.48-19.53 70.48-13.15 70.48-6.76 66.86-3 63.23 0.76 57 0.76 50.78 0.76 47.14-2.78ZM84.3-29.47L84.3-29.47 84.3-12.3Q84.3-8.67 86.05-7.57L86.05-7.57Q86.08-7.45 86.08-7.1L86.08-7.1 86.08-6.67Q86.08-3.17 84.31-1.37 82.54 0.44 79.29 0.44 76.04 0.44 74.14-1.37L74.14-1.37Q71.87-3.52 71.87-7.86L71.87-7.86 71.87-33.23Q74.43-34.79 77.74-34.79 81.05-34.79 82.67-33.39 84.3-31.98 84.3-29.47ZM95.55 0.32L95.55 0.32Q92.64 0.32 90.91-0.73L90.91-0.73Q88.98-1.83 88.98-3.98L88.98-3.98 88.98-15.43 89.74-15.43Q90.96-15.43 90.96-16.24L90.96-16.24Q90.96-16.33 90.91-16.53L90.91-16.53 86.86-16.53Q85.44-18.55 85.44-21.53 85.44-24.51 86.86-26.68L86.86-26.68 88.98-26.68Q89.57-30.74 92.16-32.89 94.74-35.03 99.04-35.03L99.04-35.03Q102.12-35.03 104.39-34.16 106.66-33.28 107.71-32.15L107.71-32.15Q107.95-31.35 107.95-30.2L107.95-30.2 107.95-29.74Q107.95-27.22 107.22-25.32L107.22-25.32Q105.53-24.66 102.51-24.66L102.51-24.66Q101.26-24.66 99.78-24.83 98.31-25 97.6-25.17L97.6-25.17Q97.43-25 97.43-24.68L97.43-24.68Q97.43-24.27 98.6-23.91 99.77-23.56 102.4-23.56 105.02-23.56 106.71-23.85L106.71-23.85Q106.88-23.46 107.04-22.38 107.19-21.29 107.19-20.24L107.19-20.24Q107.19-17.99 106.36-16.53L106.36-16.53 101.85-16.53 101.85-1.37Q99.19 0.32 95.55 0.32ZM133.63-8.89L133.63-8.89Q134.44-9.03 134.44-9.7 134.44-10.38 134.01-11.22 133.58-12.06 132.75-12.82L132.75-12.82Q130.58-14.77 126.87-14.77L126.87-14.77Q125.04-14.77 123.45-14.16L123.45-14.16Q121.76-15.01 120.76-16.87 119.76-18.73 119.76-20.87L119.76-20.87Q119.76-26.49 124.45-29.54L124.45-29.54Q128.48-32.15 134.39-32.15L134.39-32.15Q138.78-32.15 141.78-31.21 144.79-30.27 146.69-28.81L146.69-28.81Q147.25-27.2 147.25-25.46 147.25-23.73 146.79-22.31 146.33-20.9 145.45-20.04L145.45-20.04Q144.62-20.65 142.44-21.29 140.27-21.92 138.49-21.92 136.71-21.92 136.11-21.7 135.51-21.48 135.51-21.02L135.51-21.02Q135.51-20.8 135.58-20.61L135.58-20.61Q136.44-20.83 137.78-20.83L137.78-20.83Q142.54-20.83 145.54-18.58L145.54-18.58Q149.08-15.89 149.08-10.52L149.08-10.52Q149.08-5.79 145.25-2.66L145.25-2.66Q141.1 0.68 134.09 0.68L134.09 0.68Q130.24 0.68 127.4 0.11 124.57-0.46 121.89-1.9L121.89-1.9Q120.06-4.57 120.06-7.31 120.06-10.06 121.94-11.87 123.82-13.67 126.56-13.67 129.31-13.67 131.05-12.55 132.8-11.43 133.63-8.89ZM162.41-9.18L162.41-9.18 161.24-8.67Q161.24-7.03 161.87-5.18L161.87-5.18Q162.41-3.42 163.36-2.05L163.36-2.05Q160.95 0.44 156.65 0.44L156.65 0.44Q154.18 0.44 152.38-0.85L152.38-0.85Q150.28-2.32 150.28-4.74L150.28-4.74 150.28-33.23Q151.45-33.91 153.1-34.35 154.75-34.79 156.43-34.79L156.43-34.79Q159.24-34.79 161.07-33.69L161.07-33.69Q163.14-32.4 163.14-29.98L163.14-29.98 163.14-27.39Q163.14-24.15 162-21.04L162-21.04Q161.78-20.73 161.22-20.13 160.65-19.53 160.32-19.04 159.99-18.55 159.99-18.2 159.99-17.85 160.58-17.55L160.58-17.55Q162.49-19.34 163.57-21.44 164.66-23.54 165.56-27L165.56-27Q165.88-27.05 166.29-27.12 166.71-27.2 167.67-27.36 168.64-27.51 169.03-27.51L169.03-27.51Q172.79-27.51 174.89-25.79 176.99-24.07 176.99-21.07 176.99-18.07 175.08-15.92L175.08-15.92Q173.32-13.99 170.52-13.01L170.52-13.01Q172.76-11.69 176.18-11.13L176.18-11.13Q177.5-8.74 177.5-6.04 177.5-3.34 175.79-1.54L175.79-1.54Q173.89 0.44 170.53 0.44 167.17 0.44 165.01-2.14 162.85-4.71 162.41-9.18ZM191.22-12.33L191.22-12.33 191.22-11.77Q191.22-11.38 191.24-11.21L191.24-11.21Q191.49-11.08 191.78-11.08L191.78-11.08Q192.49-11.08 192.49-12.16L192.49-12.16Q192.49-15.75 192.89-19.62 193.29-23.49 193.76-25.59L193.76-25.59Q195.73-27.03 199.03-27.03 202.33-27.03 204.12-25.74 205.92-24.46 205.92-22.66L205.92-22.66Q205.92-21.9 205.01-16.41L205.01-16.41Q204.01-10.82 202.45-4.64L202.45-4.64Q202.13-3.39 201.31-1.15 200.5 1.1 199.57 2.59L199.57 2.59Q196.66 7.2 192.39 8.3L192.39 8.3Q190.39 8.81 188.36 8.81L188.36 8.81Q184.43 8.81 182.28 6.86L182.28 6.86Q180.3 5.1 180.3 2.5 180.3-0.1 181.84-2.39L181.84-2.39Q182.21-2.49 183.19-2.49 184.16-2.49 185.63-2.25L185.63-2.25Q189.68-1.49 189.75-1.49L189.75-1.49Q189.92-1.46 190.13-1.43 190.34-1.39 190.68-1.39 191.02-1.39 191.27-1.59 191.51-1.78 191.51-2.37L191.51-2.37 185.75-3.47Q183.63-4.35 182.06-7.15L182.06-7.15Q180.13-10.62 179.45-16.55L179.45-16.55Q177.84-18.65 177.84-21.58 177.84-24.51 179.3-26.68L179.3-26.68 185.58-26.68Q188.73-26.68 190.29-24.88L190.29-24.88Q191.44-23.54 191.75-20.95L191.75-20.95Q191.22-16.7 191.22-12.33Z" opacity="1" transform="matrix(1,0,0,1,0,0)" fill="#ffffff" class="undefined-text-0" data-fill-palette-color="primary" id="SvgjsPath1152" stroke-width="7" stroke="black" stroke-linejoin="round"></path></svg></g></svg></g></svg></g></svg></g></svg></g></svg></g></svg></g></mask></svg></g><defs></defs></svg><rect width="395.52" height="247.2" fill="none" stroke="none" visibility="hidden"></rect></g></svg></g></svg>