<svg xmlns="http://www.w3.org/2000/svg" version="1.1" xmlns:xlink="http://www.w3.org/1999/xlink" xmlns:svgjs="http://svgjs.dev/svgjs" width="1000" height="623" viewBox="0 0 1000 623"><g transform="matrix(1,0,0,1,-0.6060606060606233,0.2522267206477409)"><svg viewBox="0 0 396 247" data-background-color="#000000" preserveAspectRatio="xMidYMid meet" height="623" width="1000" xmlns="http://www.w3.org/2000/svg" xmlns:xlink="http://www.w3.org/1999/xlink"><g id="tight-bounds" transform="matrix(1,0,0,1,0.2400000000000091,-0.09999999999999432)"><svg viewBox="0 0 395.52 247.2" height="247.2" width="395.52"><g><svg></svg></g><g><svg viewBox="0 0 395.52 247.2" height="247.2" width="395.52"><g transform="matrix(1,0,0,1,39.55199999999999,84.39221549937835)"><svg viewBox="0 0 316.416 78.41556900124327" height="78.41556900124327" width="316.416"><g><svg viewBox="0 0 316.416 78.41556900124327" height="78.41556900124327" width="316.416"><g><svg viewBox="0 0 316.416 78.41556900124327" height="78.41556900124327" width="316.416"><g><svg viewBox="0 0 316.416 78.41556900124327" height="78.41556900124327" width="316.416"><g id="textblocktransform"><svg viewBox="0 0 316.416 78.41556900124327" height="78.41556900124327" width="316.416" id="textblock"><g><svg viewBox="0 0 316.416 78.41556900124327" height="78.41556900124327" width="316.416"><g transform="matrix(1,0,0,1,0,0)"><svg width="316.416" viewBox="-2 -43.6 242.28 60.8" height="78.41556900124327" data-palette-color="#ffffff"><path d="M14 0Q12.3 0 11-0.83 9.7-1.65 9.4-2.9L9.4-2.9Q9.3-3.2 8.5-6.9L8.5-6.9Q7.25-13.15 5.55-18.7L5.55-18.7Q4.4-22.55 3.65-25.5L3.65-25.5 2.15-30.9Q2-31.45 2-31.9L2-31.9Q2-33.45 3.2-34.38 4.4-35.3 6.2-35.3L6.2-35.3Q7.4-35.3 8.18-34.77 8.95-34.25 9.25-33L9.25-33Q9.6-31.5 9.93-30.38 10.25-29.25 10.45-28.4L10.45-28.4Q11.7-24.15 12.5-20.35L12.5-20.35Q12.75-19.25 13.4-15.8L13.4-15.8Q13.85-13.65 14.25-11.85 14.65-10.05 14.8-10.05L14.8-10.05Q14.95-10.05 15.33-11 15.7-11.95 15.98-12.78 16.25-13.6 16.4-14.05L16.4-14.05Q16.6-14.75 17.45-17.15L17.45-17.15Q18.15-19 18.57-19.93 19-20.85 19.7-21.55 20.4-22.25 21.4-22.25L21.4-22.25Q22.8-22.25 23.7-21 24.6-19.75 25.55-17.05L25.55-17.05Q28-10.15 28.5-10.15L28.5-10.15Q28.8-10.15 29.65-15.55L29.65-15.55Q29.85-16.55 30.05-17.73 30.25-18.9 30.5-20.25L30.5-20.25Q31.8-26.95 33.2-32.95L33.2-32.95Q33.75-35.25 36.55-35.25L36.55-35.25Q38.3-35.25 39.45-34.35 40.6-33.45 40.6-32.05L40.6-32.05Q40.6-31.65 40.45-31.1L40.45-31.1Q39.35-26.95 38.15-21.7L38.15-21.7 37.45-18.75Q36.65-15.4 35.83-11.3 35-7.2 34.75-6.05L34.75-6.05 34.2-3.2Q33.9-1.7 32.75-0.9 31.6-0.1 29.8-0.1L29.8-0.1Q28-0.1 26.78-0.95 25.55-1.8 24.55-3.65L24.55-3.65Q24.4-3.9 23.1-6.65L23.1-6.65Q21.75-9.65 21.55-9.65L21.55-9.65Q21.35-9.65 20.55-7.3L20.55-7.3Q19.5-4.5 19.1-3.7L19.1-3.7Q17.3 0 14 0L14 0ZM57.9 0.15Q51.55 0.15 47.82-3.18 44.1-6.5 44.1-12.5L44.1-12.5Q44.1-16.4 45.75-19.45 47.4-22.5 50.42-24.2 53.45-25.9 57.55-25.9L57.55-25.9Q61.7-25.9 64.85-24.15 68-22.4 69.72-19.28 71.45-16.15 71.45-12.15L71.45-12.15Q71.45-6.3 67.8-3.08 64.15 0.15 57.9 0.15L57.9 0.15ZM57.8-5.4Q60.85-5.4 62.52-7.13 64.2-8.85 64.2-12.25L64.2-12.25Q64.2-15.6 62.57-17.98 60.95-20.35 57.8-20.35L57.8-20.35Q54.85-20.35 53.1-18.2 51.35-16.05 51.35-12.45L51.35-12.45Q51.35-8.95 53.05-7.18 54.75-5.4 57.8-5.4L57.8-5.4ZM79.75-0.45Q78.15-0.45 77.2-1.3 76.25-2.15 76.25-3.45L76.25-3.45 75.95-36.55Q75.95-37.9 77-38.75 78.05-39.6 79.65-39.6L79.65-39.6Q81.25-39.6 82.22-38.78 83.2-37.95 83.2-36.6L83.2-36.6 83.45-3.5Q83.45-2.1 82.37-1.28 81.3-0.45 79.75-0.45L79.75-0.45ZM100.34-37Q104.24-37 106.37-34.88 108.49-32.75 108.49-29.3L108.49-29.3Q108.49-27.25 107.64-26.33 106.79-25.4 104.94-25.4L104.94-25.4Q101.59-25.4 101.34-28.45L101.34-28.45Q101.29-28.75 101.29-29.55 101.29-30.35 101.02-30.8 100.74-31.25 100.09-31.25L100.09-31.25Q99.54-31.25 99.29-30.85 99.04-30.45 98.94-29.45 98.84-28.45 98.79-26.2L98.79-26.2Q98.74-24.7 98.74-21.4L98.74-21.4 101.44-21.4Q103.84-21.4 103.84-18.7L103.84-18.7Q103.84-16.05 101.34-16.05L101.34-16.05Q99.69-16.05 98.79-16L98.79-16Q98.84-10.55 99.09-2.95L99.09-2.95Q99.14-1.6 98.14-0.8 97.14 0 95.54 0L95.54 0Q93.99 0 92.99-0.78 91.99-1.55 91.94-2.85L91.94-2.85Q91.74-8.9 91.69-15.85L91.69-15.85 90.54-15.85Q88.84-15.85 88.14-16.55 87.44-17.25 87.44-18.65L87.44-18.65Q87.44-19.95 88.04-20.68 88.64-21.4 90.24-21.4L90.24-21.4 91.59-21.4 91.54-26.6Q91.54-31.65 93.84-34.33 96.14-37 100.34-37L100.34-37ZM119.69 13.2Q117.99 13.2 116.92 12.28 115.84 11.35 115.84 10L115.84 10Q115.84 9.4 116.09 8.75L116.09 8.75 118.09 2.95 119.89-2.15Q117.49-3.9 115.39-7.43 113.29-10.95 111.87-14.88 110.44-18.8 109.94-21.75L109.94-21.75Q109.84-22.25 109.84-22.75L109.84-22.75Q109.84-24.15 110.79-24.85 111.74-25.55 113.19-25.55L113.19-25.55Q114.64-25.55 115.27-24.98 115.89-24.4 116.09-23.35L116.09-23.35Q117.19-18.3 118.84-14.28 120.49-10.25 122.29-9L122.29-9Q123.04-11.35 123.77-14.15 124.49-16.95 124.74-17.95L124.74-17.95Q125.79-22.1 126.19-23.6L126.19-23.6Q126.49-24.7 127.14-25.18 127.79-25.65 129.04-25.65L129.04-25.65Q130.74-25.65 131.84-24.88 132.94-24.1 132.94-22.95L132.94-22.95Q132.94-22.6 132.89-22.4L132.89-22.4Q130.89-14.3 127.64-3.95L127.64-3.95Q123.84 8.3 122.64 11.1L122.64 11.1Q122.19 12.1 121.59 12.65 120.99 13.2 119.69 13.2L119.69 13.2ZM169.09 0.05Q165.34 0.05 162.36-1.53 159.39-3.1 157.71-5.68 156.04-8.25 156.04-11.2L156.04-11.2Q156.04-13.1 157.01-13.95 157.99-14.8 159.54-14.8L159.54-14.8Q163.19-14.8 163.34-11.75L163.34-11.75Q163.49-9.2 165.19-7.83 166.89-6.45 169.09-6.45L169.09-6.45Q170.99-6.45 172.49-7.3 173.99-8.15 173.99-9.8L173.99-9.8Q173.99-11.1 173.04-11.98 172.09-12.85 170.81-13.33 169.54-13.8 167.29-14.45L167.29-14.45Q164.39-15.25 162.14-16.2 159.89-17.15 157.91-19.28 155.94-21.4 155.94-24.75L155.94-24.75Q155.94-27.8 157.61-30.25 159.29-32.7 162.14-34.08 164.99-35.45 168.39-35.45L168.39-35.45Q171.94-35.45 174.81-33.98 177.69-32.5 179.34-30.05 180.99-27.6 180.99-24.9L180.99-24.9Q180.99-21.6 177.39-21.6L177.39-21.6Q175.84-21.6 175.06-22.35 174.29-23.1 173.84-24.8L173.84-24.8Q173.39-26.5 172.01-27.75 170.64-29 168.39-29L168.39-29Q166.19-29 164.69-27.83 163.19-26.65 163.19-24.65L163.19-24.65Q163.19-23.25 164.31-22.6 165.44-21.95 168.64-21L168.64-21Q168.94-20.9 169.34-20.78 169.74-20.65 170.19-20.5L170.19-20.5Q172.94-19.65 175.24-18.55 177.54-17.45 179.39-15.3 181.24-13.15 181.24-9.95L181.24-9.95Q181.24-7.05 179.61-4.78 177.99-2.5 175.21-1.23 172.44 0.05 169.09 0.05L169.09 0.05ZM190.83 0.4Q189.33 0.4 188.28-0.35 187.23-1.1 187.23-2.2L187.23-2.2 187.23-34.1Q187.23-35.45 188.23-36.25 189.23-37.05 190.78-37.05L190.78-37.05Q192.38-37.05 193.41-36.25 194.43-35.45 194.43-34.1L194.43-34.1 194.33-20.1 197.28-22Q202.18-25.1 204.43-26.45L204.43-26.45Q205.53-27.1 206.68-26.95L206.68-26.95Q207.68-26.8 208.43-25.78 209.18-24.75 209.18-23.6L209.18-23.6Q209.18-22.8 208.78-22.35 208.38-21.9 207.43-21.3L207.43-21.3 195.83-14.15 207.88-4.95Q208.73-4.3 208.73-3L208.73-3Q208.73-1.7 207.76-0.85 206.78 0 205.48 0L205.48 0Q204.23 0 202.98-0.9L202.98-0.9Q201.23-2.2 198.03-5.05L198.03-5.05Q194.63-8 194.33-8.25L194.33-8.25 194.33-2.25Q194.33-1.1 193.33-0.35 192.33 0.4 190.83 0.4L190.83 0.4ZM223.03 13.2Q221.33 13.2 220.26 12.28 219.18 11.35 219.18 10L219.18 10Q219.18 9.4 219.43 8.75L219.43 8.75 221.43 2.95 223.23-2.15Q220.83-3.9 218.73-7.43 216.63-10.95 215.21-14.88 213.78-18.8 213.28-21.75L213.28-21.75Q213.18-22.25 213.18-22.75L213.18-22.75Q213.18-24.15 214.13-24.85 215.08-25.55 216.53-25.55L216.53-25.55Q217.98-25.55 218.61-24.98 219.23-24.4 219.43-23.35L219.43-23.35Q220.53-18.3 222.18-14.28 223.83-10.25 225.63-9L225.63-9Q226.38-11.35 227.11-14.15 227.83-16.95 228.08-17.95L228.08-17.95Q229.13-22.1 229.53-23.6L229.53-23.6Q229.83-24.7 230.48-25.18 231.13-25.65 232.38-25.65L232.38-25.65Q234.08-25.65 235.18-24.88 236.28-24.1 236.28-22.95L236.28-22.95Q236.28-22.6 236.23-22.4L236.23-22.4Q234.23-14.3 230.98-3.95L230.98-3.95Q227.18 8.3 225.98 11.1L225.98 11.1Q225.53 12.1 224.93 12.65 224.33 13.2 223.03 13.2L223.03 13.2Z" opacity="1" transform="matrix(1,0,0,1,0,0)" fill="#ffffff" class="undefined-text-0" data-fill-palette-color="primary" id="text-0"></path></svg></g></svg></g></svg></g></svg></g></svg></g></svg></g></svg></g><g mask="url(&quot;#fff91ed1-ae87-40ee-aaf3-010a76667edf&quot;)"><g transform="matrix(3.9352, 0, 0, 3.9352, 1, 48.992543199999986)"><svg xmlns="http://www.w3.org/2000/svg" xmlns:xlink="http://www.w3.org/1999/xlink" version="1.1" x="0" y="0" viewBox="0 31.042 100 37.918000000000006" enable-background="new 0 0 100 100" xml:space="preserve" height="37.918000000000006" width="100" class="icon-none" data-fill-palette-color="accent" id="none"><path d="M23.545 51.412c6.389-0.23 12.777-0.461 19.166-0.69-1.191-1.97-1.489-3.692-3.767-3.989-3.408-0.443-6.816-0.888-10.225-1.332-6.611-0.861-13.224-1.723-19.836-2.584C9.476 43.773 18.728 51.585 23.545 51.412z" fill="#4072f4" data-fill-palette-color="accent"></path><path d="M0 31.042c2.07 3.421 12.547 10.877 15.536 11.261 8.17 1.052 16.339 2.103 24.509 3.153-1.6-2.644-1.971-4.408-4.861-5.167-4.198-1.104-8.397-2.208-12.596-3.311C15.058 35 7.529 33.021 0 31.042z" fill="#4072f4" data-fill-palette-color="accent"></path><path d="M29.752 57.642c4.909-1.047 9.818-2.094 14.729-3.141-0.956-1.577-0.959-2.526-2.747-2.446-2.903 0.129-5.806 0.259-8.708 0.388-5.348 0.238-10.695 0.478-16.042 0.716C17.584 53.803 25.901 58.462 29.752 57.642z" fill="#4072f4" data-fill-palette-color="accent"></path><path d="M41.337 68.959c2.699-1.754 3.424-3.641 4.959-6.51 1.722-3.217 0.593-3.697-1.33-6.881-0.196-0.324-2.754 0.109-3.042 0.427-0.352 0.386-0.117 2.571-0.139 3.062C41.636 62.357 41.486 65.658 41.337 68.959z" fill="#4072f4" data-fill-palette-color="accent"></path><path d="M40.709 56.34c-1.789 0.382-4.057 0.091-4.513 1.994-0.647 2.704-1.295 5.409-1.942 8.113C38.613 65.406 40.558 60.175 40.709 56.34z" fill="#4072f4" data-fill-palette-color="accent"></path><path d="M35.201 57.601c-4.313 0.921-4.223 2.174-6.072 6.214C32.062 63.536 34.798 60.345 35.201 57.601z" fill="#4072f4" data-fill-palette-color="accent"></path><path d="M91.116 42.816c-6.612 0.861-13.225 1.723-19.837 2.584-3.408 0.444-6.816 0.889-10.225 1.332-2.276 0.297-2.575 2.02-3.766 3.989 6.389 0.229 12.777 0.46 19.166 0.69C81.271 51.585 90.523 43.773 91.116 42.816z" fill="#4072f4" data-fill-palette-color="accent"></path><path d="M77.413 36.978c-4.199 1.104-8.397 2.208-12.597 3.311-2.89 0.759-3.262 2.523-4.86 5.167 8.169-1.051 16.339-2.102 24.508-3.153 2.989-0.384 13.467-7.84 15.536-11.261C92.471 33.021 84.942 35 77.413 36.978z" fill="#4072f4" data-fill-palette-color="accent"></path><path d="M83.017 53.158c-5.347-0.238-10.694-0.478-16.042-0.716-2.903-0.129-5.806-0.259-8.709-0.388-1.788-0.08-1.79 0.869-2.746 2.446 4.909 1.047 9.818 2.094 14.729 3.141C74.098 58.462 82.415 53.803 83.017 53.158z" fill="#4072f4" data-fill-palette-color="accent"></path><path d="M58.215 59.058c-0.022-0.491 0.213-2.677-0.139-3.062-0.289-0.317-2.846-0.751-3.042-0.427-1.924 3.184-3.052 3.664-1.33 6.881 1.535 2.869 2.259 4.756 4.959 6.51C58.514 65.658 58.364 62.357 58.215 59.058z" fill="#4072f4" data-fill-palette-color="accent"></path><path d="M65.745 66.447c-0.647-2.704-1.295-5.409-1.942-8.113-0.455-1.903-2.724-1.612-4.512-1.994C59.441 60.175 61.387 65.406 65.745 66.447z" fill="#4072f4" data-fill-palette-color="accent"></path><path d="M70.871 63.814c-1.851-4.04-1.76-5.293-6.072-6.214C65.202 60.345 67.938 63.536 70.871 63.814z" fill="#4072f4" data-fill-palette-color="accent"></path></svg></g></g><mask id="fff91ed1-ae87-40ee-aaf3-010a76667edf"><rect width="640" height="400" fill="white"></rect><g transform="matrix(1,0,0,1,39.55199999999999,84.39221549937835)"><svg viewBox="0 0 316.416 78.41556900124327" height="78.41556900124327" width="316.416"><g><svg viewBox="0 0 316.416 78.41556900124327" height="78.41556900124327" width="316.416"><g><svg viewBox="0 0 316.416 78.41556900124327" height="78.41556900124327" width="316.416"><g><svg viewBox="0 0 316.416 78.41556900124327" height="78.41556900124327" width="316.416"><g id="SvgjsG1080"><svg viewBox="0 0 316.416 78.41556900124327" height="78.41556900124327" width="316.416" id="SvgjsSvg1079"><g><svg viewBox="0 0 316.416 78.41556900124327" height="78.41556900124327" width="316.416"><g transform="matrix(1,0,0,1,0,0)"><svg width="316.416" viewBox="-2 -43.6 242.28 60.8" height="78.41556900124327" data-palette-color="#ffffff"><path d="M14 0Q12.3 0 11-0.83 9.7-1.65 9.4-2.9L9.4-2.9Q9.3-3.2 8.5-6.9L8.5-6.9Q7.25-13.15 5.55-18.7L5.55-18.7Q4.4-22.55 3.65-25.5L3.65-25.5 2.15-30.9Q2-31.45 2-31.9L2-31.9Q2-33.45 3.2-34.38 4.4-35.3 6.2-35.3L6.2-35.3Q7.4-35.3 8.18-34.77 8.95-34.25 9.25-33L9.25-33Q9.6-31.5 9.93-30.38 10.25-29.25 10.45-28.4L10.45-28.4Q11.7-24.15 12.5-20.35L12.5-20.35Q12.75-19.25 13.4-15.8L13.4-15.8Q13.85-13.65 14.25-11.85 14.65-10.05 14.8-10.05L14.8-10.05Q14.95-10.05 15.33-11 15.7-11.95 15.98-12.78 16.25-13.6 16.4-14.05L16.4-14.05Q16.6-14.75 17.45-17.15L17.45-17.15Q18.15-19 18.57-19.93 19-20.85 19.7-21.55 20.4-22.25 21.4-22.25L21.4-22.25Q22.8-22.25 23.7-21 24.6-19.75 25.55-17.05L25.55-17.05Q28-10.15 28.5-10.15L28.5-10.15Q28.8-10.15 29.65-15.55L29.65-15.55Q29.85-16.55 30.05-17.73 30.25-18.9 30.5-20.25L30.5-20.25Q31.8-26.95 33.2-32.95L33.2-32.95Q33.75-35.25 36.55-35.25L36.55-35.25Q38.3-35.25 39.45-34.35 40.6-33.45 40.6-32.05L40.6-32.05Q40.6-31.65 40.45-31.1L40.45-31.1Q39.35-26.95 38.15-21.7L38.15-21.7 37.45-18.75Q36.65-15.4 35.83-11.3 35-7.2 34.75-6.05L34.75-6.05 34.2-3.2Q33.9-1.7 32.75-0.9 31.6-0.1 29.8-0.1L29.8-0.1Q28-0.1 26.78-0.95 25.55-1.8 24.55-3.65L24.55-3.65Q24.4-3.9 23.1-6.65L23.1-6.65Q21.75-9.65 21.55-9.65L21.55-9.65Q21.35-9.65 20.55-7.3L20.55-7.3Q19.5-4.5 19.1-3.7L19.1-3.7Q17.3 0 14 0L14 0ZM57.9 0.15Q51.55 0.15 47.82-3.18 44.1-6.5 44.1-12.5L44.1-12.5Q44.1-16.4 45.75-19.45 47.4-22.5 50.42-24.2 53.45-25.9 57.55-25.9L57.55-25.9Q61.7-25.9 64.85-24.15 68-22.4 69.72-19.28 71.45-16.15 71.45-12.15L71.45-12.15Q71.45-6.3 67.8-3.08 64.15 0.15 57.9 0.15L57.9 0.15ZM57.8-5.4Q60.85-5.4 62.52-7.13 64.2-8.85 64.2-12.25L64.2-12.25Q64.2-15.6 62.57-17.98 60.95-20.35 57.8-20.35L57.8-20.35Q54.85-20.35 53.1-18.2 51.35-16.05 51.35-12.45L51.35-12.45Q51.35-8.95 53.05-7.18 54.75-5.4 57.8-5.4L57.8-5.4ZM79.75-0.45Q78.15-0.45 77.2-1.3 76.25-2.15 76.25-3.45L76.25-3.45 75.95-36.55Q75.95-37.9 77-38.75 78.05-39.6 79.65-39.6L79.65-39.6Q81.25-39.6 82.22-38.78 83.2-37.95 83.2-36.6L83.2-36.6 83.45-3.5Q83.45-2.1 82.37-1.28 81.3-0.45 79.75-0.45L79.75-0.45ZM100.34-37Q104.24-37 106.37-34.88 108.49-32.75 108.49-29.3L108.49-29.3Q108.49-27.25 107.64-26.33 106.79-25.4 104.94-25.4L104.94-25.4Q101.59-25.4 101.34-28.45L101.34-28.45Q101.29-28.75 101.29-29.55 101.29-30.35 101.02-30.8 100.74-31.25 100.09-31.25L100.09-31.25Q99.54-31.25 99.29-30.85 99.04-30.45 98.94-29.45 98.84-28.45 98.79-26.2L98.79-26.2Q98.74-24.7 98.74-21.4L98.74-21.4 101.44-21.4Q103.84-21.4 103.84-18.7L103.84-18.7Q103.84-16.05 101.34-16.05L101.34-16.05Q99.69-16.05 98.79-16L98.79-16Q98.84-10.55 99.09-2.95L99.09-2.95Q99.14-1.6 98.14-0.8 97.14 0 95.54 0L95.54 0Q93.99 0 92.99-0.78 91.99-1.55 91.94-2.85L91.94-2.85Q91.74-8.9 91.69-15.85L91.69-15.85 90.54-15.85Q88.84-15.85 88.14-16.55 87.44-17.25 87.44-18.65L87.44-18.65Q87.44-19.95 88.04-20.68 88.64-21.4 90.24-21.4L90.24-21.4 91.59-21.4 91.54-26.6Q91.54-31.65 93.84-34.33 96.14-37 100.34-37L100.34-37ZM119.69 13.2Q117.99 13.2 116.92 12.28 115.84 11.35 115.84 10L115.84 10Q115.84 9.4 116.09 8.75L116.09 8.75 118.09 2.95 119.89-2.15Q117.49-3.9 115.39-7.43 113.29-10.95 111.87-14.88 110.44-18.8 109.94-21.75L109.94-21.75Q109.84-22.25 109.84-22.75L109.84-22.75Q109.84-24.15 110.79-24.85 111.74-25.55 113.19-25.55L113.19-25.55Q114.64-25.55 115.27-24.98 115.89-24.4 116.09-23.35L116.09-23.35Q117.19-18.3 118.84-14.28 120.49-10.25 122.29-9L122.29-9Q123.04-11.35 123.77-14.15 124.49-16.95 124.74-17.95L124.74-17.95Q125.79-22.1 126.19-23.6L126.19-23.6Q126.49-24.7 127.14-25.18 127.79-25.65 129.04-25.65L129.04-25.65Q130.74-25.65 131.84-24.88 132.94-24.1 132.94-22.95L132.94-22.95Q132.94-22.6 132.89-22.4L132.89-22.4Q130.89-14.3 127.64-3.95L127.64-3.95Q123.84 8.3 122.64 11.1L122.64 11.1Q122.19 12.1 121.59 12.65 120.99 13.2 119.69 13.2L119.69 13.2ZM169.09 0.05Q165.34 0.05 162.36-1.53 159.39-3.1 157.71-5.68 156.04-8.25 156.04-11.2L156.04-11.2Q156.04-13.1 157.01-13.95 157.99-14.8 159.54-14.8L159.54-14.8Q163.19-14.8 163.34-11.75L163.34-11.75Q163.49-9.2 165.19-7.83 166.89-6.45 169.09-6.45L169.09-6.45Q170.99-6.45 172.49-7.3 173.99-8.15 173.99-9.8L173.99-9.8Q173.99-11.1 173.04-11.98 172.09-12.85 170.81-13.33 169.54-13.8 167.29-14.45L167.29-14.45Q164.39-15.25 162.14-16.2 159.89-17.15 157.91-19.28 155.94-21.4 155.94-24.75L155.94-24.75Q155.94-27.8 157.61-30.25 159.29-32.7 162.14-34.08 164.99-35.45 168.39-35.45L168.39-35.45Q171.94-35.45 174.81-33.98 177.69-32.5 179.34-30.05 180.99-27.6 180.99-24.9L180.99-24.9Q180.99-21.6 177.39-21.6L177.39-21.6Q175.84-21.6 175.06-22.35 174.29-23.1 173.84-24.8L173.84-24.8Q173.39-26.5 172.01-27.75 170.64-29 168.39-29L168.39-29Q166.19-29 164.69-27.83 163.19-26.65 163.19-24.65L163.19-24.65Q163.19-23.25 164.31-22.6 165.44-21.95 168.64-21L168.64-21Q168.94-20.9 169.34-20.78 169.74-20.65 170.19-20.5L170.19-20.5Q172.94-19.65 175.24-18.55 177.54-17.45 179.39-15.3 181.24-13.15 181.24-9.95L181.24-9.95Q181.24-7.05 179.61-4.78 177.99-2.5 175.21-1.23 172.44 0.05 169.09 0.05L169.09 0.05ZM190.83 0.4Q189.33 0.4 188.28-0.35 187.23-1.1 187.23-2.2L187.23-2.2 187.23-34.1Q187.23-35.45 188.23-36.25 189.23-37.05 190.78-37.05L190.78-37.05Q192.38-37.05 193.41-36.25 194.43-35.45 194.43-34.1L194.43-34.1 194.33-20.1 197.28-22Q202.18-25.1 204.43-26.45L204.43-26.45Q205.53-27.1 206.68-26.95L206.68-26.95Q207.68-26.8 208.43-25.78 209.18-24.75 209.18-23.6L209.18-23.6Q209.18-22.8 208.78-22.35 208.38-21.9 207.43-21.3L207.43-21.3 195.83-14.15 207.88-4.95Q208.73-4.3 208.73-3L208.73-3Q208.73-1.7 207.76-0.85 206.78 0 205.48 0L205.48 0Q204.23 0 202.98-0.9L202.98-0.9Q201.23-2.2 198.03-5.05L198.03-5.05Q194.63-8 194.33-8.25L194.33-8.25 194.33-2.25Q194.33-1.1 193.33-0.35 192.33 0.4 190.83 0.4L190.83 0.4ZM223.03 13.2Q221.33 13.2 220.26 12.28 219.18 11.35 219.18 10L219.18 10Q219.18 9.4 219.43 8.75L219.43 8.75 221.43 2.95 223.23-2.15Q220.83-3.9 218.73-7.43 216.63-10.95 215.21-14.88 213.78-18.8 213.28-21.75L213.28-21.75Q213.18-22.25 213.18-22.75L213.18-22.75Q213.18-24.15 214.13-24.85 215.08-25.55 216.53-25.55L216.53-25.55Q217.98-25.55 218.61-24.98 219.23-24.4 219.43-23.35L219.43-23.35Q220.53-18.3 222.18-14.28 223.83-10.25 225.63-9L225.63-9Q226.38-11.35 227.11-14.15 227.83-16.95 228.08-17.95L228.08-17.95Q229.13-22.1 229.53-23.6L229.53-23.6Q229.83-24.7 230.48-25.18 231.13-25.65 232.38-25.65L232.38-25.65Q234.08-25.65 235.18-24.88 236.28-24.1 236.28-22.95L236.28-22.95Q236.28-22.6 236.23-22.4L236.23-22.4Q234.23-14.3 230.98-3.95L230.98-3.95Q227.18 8.3 225.98 11.1L225.98 11.1Q225.53 12.1 224.93 12.65 224.33 13.2 223.03 13.2L223.03 13.2Z" opacity="1" transform="matrix(1,0,0,1,0,0)" fill="#ffffff" class="undefined-text-0" data-fill-palette-color="primary" id="SvgjsPath1078" stroke-width="7" stroke="black" stroke-linejoin="round"></path></svg></g></svg></g></svg></g></svg></g></svg></g></svg></g></svg></g></mask></svg></g><defs></defs></svg><rect width="395.52" height="247.2" fill="none" stroke="none" visibility="hidden"></rect></g></svg></g></svg>